<svg width="400" height="400" viewBox="0 0 400 400" fill="none" xmlns="http://www.w3.org/2000/svg">
  <title>DailyChefMate icon</title>
  <desc>A playful refrigerator with a chef hat</desc>
  <g transform="translate(29 14)">
    <path d="M55 80C55 42 85 16 123 16H217C255 16 285 42 285 80V333H55V80Z" fill="#267B72"/>
    <path d="M55 199H285V333H55V199Z" fill="#1E665F"/>
    <path d="M55 199H285" stroke="#FFF9F0" stroke-width="12"/>
    <path d="M239 101V164" stroke="#FFF9F0" stroke-width="14" stroke-linecap="round"/>
    <path d="M239 237V294" stroke="#FFF9F0" stroke-width="14" stroke-linecap="round"/>
    <path d="M82 333V357" stroke="#267B72" stroke-width="16" stroke-linecap="round"/>
    <path d="M258 333V357" stroke="#267B72" stroke-width="16" stroke-linecap="round"/>
    <path d="M104 90C87 86 76 72 76 55C76 35 92 20 112 20C120 20 128 23 134 28C142 11 160 0 181 0C205 0 225 15 230 36C236 33 242 32 249 32C270 32 287 49 287 70C287 90 271 106 251 107H104C94 107 86 99 86 89C86 80 94 72 104 72" fill="#F4B95A"/>
    <path d="M109 107H250V128C250 142 239 153 225 153H134C120 153 109 142 109 128V107Z" fill="#F4B95A"/>
    <path d="M127 123H232" stroke="#FFF9F0" stroke-width="8" stroke-linecap="round"/>
  </g>
</svg>
